Coordinates
version=1
nRows=22
nColumns=33
inDegrees=yes

Units are S.I. units (second, meters, Newtons, ...)
Angles are in degrees.

endheader
time	ground_thorax_rot_x	ground_thorax_rot_y	ground_thorax_rot_z	ground_thorax_tx	ground_thorax_ty	ground_thorax_tz	clav_prot_r	clav_elev_r	scapula_abduction_r	scapula_elevation_r	scapula_upward_rot_r	scapula_winging_r	shoulder_elv_r	plane_of_elev_r	axial_rot_r	elbow_flexion_r	pro_sup_r	wrist_flex_r	wrist_dev_r	clav_prot_l	clav_elev_l	scapula_abduction_l	scapula_elevation_l	scapula_upward_rot_l	scapula_winging_l	shoulder_elv_l	plane_of_elev_l	axial_rot_l	elbow_flexion_l	pro_sup_l	wrist_flex_l	wrist_dev_l	
4.5000	-40.331709	-10.120506	8.001247	-197.731519	844.325653	-10.409841	9.737568	-45.000000	33.439728	-45.000000	-44.999920	1701.788533	-1911.320472	150.866132	-91.384068	1093.879971	42.703763	18.343970	6.370293	15.327333	38.332758	-36.003408	-45.000000	-45.000000	-276.565154	-2809.662475	19.421537	-45.678831	-349.515271	33.633184	9.233768	-22.499451	
4.5100	-40.276029	-9.951464	8.002774	-198.550807	845.226747	-10.351807	9.687325	-45.000000	33.425994	-45.000000	-44.999856	1701.722816	-1911.250332	150.799818	-91.575103	1093.913364	42.396163	18.272409	6.374569	15.313912	38.385718	-35.972895	-45.000000	-45.000000	-276.546316	-2809.573020	19.294529	-46.153296	-349.416685	33.709226	9.084644	-22.451733	
4.5200	-40.222139	-9.779736	8.003676	-199.295794	846.078252	-10.293420	9.602837	-45.000000	33.397746	-45.000000	-44.999742	1701.674595	-1911.167190	150.743364	-91.797751	1093.960516	42.098506	18.184850	6.388275	15.290801	38.504162	-35.959165	-45.000000	-45.000000	-276.540264	-2809.469615	19.150025	-46.659145	-349.297654	33.790137	8.919491	-22.393577	
4.5300	-40.164348	-9.657634	8.029882	-199.878071	846.818455	-10.236466	9.589534	-45.000000	33.409746	-45.000000	-44.999540	1701.625762	-1911.109812	150.689893	-91.946435	1093.983493	41.829255	18.134641	6.387997	15.275647	38.529300	-35.920615	-45.000000	-45.000000	-276.529217	-2809.400910	19.044782	-47.031241	-349.230434	33.881689	8.797855	-22.350186	
4.5400	-40.107884	-9.579315	8.086054	-200.292474	847.446136	-10.178515	9.603324	-45.000000	33.440276	-45.000000	-44.999168	1701.587567	-1911.065453	150.652995	-92.061474	1093.990252	41.591490	18.116536	6.386566	15.267354	38.503803	-35.879817	-45.000000	-45.000000	-276.504419	-2809.354697	18.957626	-47.338288	-349.185942	33.987175	8.696189	-22.313062	
4.5500	-40.053429	-9.525369	8.152717	-200.524458	847.953469	-10.117846	9.639212	-45.000000	33.478358	-45.000000	-44.998534	1701.558493	-1911.033782	150.615712	-92.147567	1093.989834	41.390546	18.101921	6.378729	15.257206	38.478189	-35.838754	-45.000000	-45.000000	-276.486583	-2809.312589	18.884868	-47.591276	-349.151662	34.110791	8.602200	-22.276668	
4.5600	-40.003278	-9.504401	8.240237	-200.584372	848.350187	-10.052459	9.680731	-45.000000	33.519274	-45.000000	-44.997307	1701.543713	-1911.009609	150.590947	-92.215524	1093.978931	41.235735	18.115221	6.373023	15.255320	38.421133	-35.805831	-45.000000	-45.000000	-276.453997	-2809.285353	18.825614	-47.815140	-349.119018	34.260218	8.514171	-22.245210	
4.5700	-39.958589	-9.483064	8.318250	-200.494715	848.654360	-9.981139	9.715948	-45.000000	33.547084	-45.000000	-44.995363	1701.538595	-1910.991999	150.556994	-92.279770	1093.973148	41.131838	18.108247	6.362368	15.247573	38.416643	-35.784301	-45.000000	-45.000000	-276.438995	-2809.244460	18.768017	-48.033213	-349.068879	34.441726	8.410696	-22.209116	
4.5800	-39.918327	-9.481399	8.401097	-200.279424	848.884101	-9.904017	9.745836	-45.000000	33.574068	-45.000000	-44.991171	1701.544784	-1910.973238	150.529430	-92.330112	1093.969837	41.092273	18.131398	6.353985	15.250629	38.375917	-35.772864	-45.000000	-45.000000	-276.409135	-2809.219010	18.726764	-48.233124	-349.011535	34.665567	8.308976	-22.180860	
4.5900	-39.883401	-9.475094	8.463444	-199.962498	849.057242	-9.822196	9.771190	-45.000000	33.596656	-45.000000	-44.985645	1701.555724	-1910.956198	150.488515	-92.371006	1093.979933	41.123011	18.131519	6.337398	15.247873	38.384232	-35.769202	-45.000000	-45.000000	-276.399409	-2809.183657	18.688676	-48.409533	-348.938655	34.937798	8.192647	-22.150945	
4.6000	-39.854239	-9.486041	8.521233	-199.567275	849.190462	-9.737222	9.789997	-45.000000	33.628791	-45.000000	-44.970208	1701.578104	-1910.933896	150.457397	-92.398219	1093.998517	41.233919	18.166442	6.324446	15.255361	38.344229	-35.777757	-45.000000	-45.000000	-276.374946	-2809.167388	18.663441	-48.561869	-348.862194	35.265828	8.084470	-22.133772	
4.6100	-39.831866	-9.494706	8.563872	-199.114991	849.299238	-9.650736	9.805548	-45.000000	33.661958	-45.000000	-44.958017	1701.600892	-1910.915601	150.420335	-92.415006	1094.029417	41.424982	18.173541	6.303280	15.254344	38.355574	-35.792492	-45.000000	-45.000000	-276.368279	-2809.141126	18.638863	-48.684542	-348.775408	35.649349	7.961788	-22.114427	
4.6200	-39.813366	-9.514509	8.605825	-198.624432	849.397517	-9.564491	9.818664	-45.000000	33.700657	-45.000000	-44.948735	1701.626972	-1910.891473	150.391781	-92.430360	1094.067249	41.695951	18.206656	6.282834	15.259854	38.325340	-35.813215	-45.000000	-45.000000	-276.352574	-2809.123181	18.629279	-48.787780	-348.689201	36.088440	7.852362	-22.110468	
4.6300	-39.798725	-9.534272	8.640107	-198.110848	849.498218	-9.480414	9.834214	-45.000000	33.740997	-45.000000	-44.952773	1701.648022	-1910.870847	150.358596	-92.449373	1094.110467	42.037069	18.204093	6.255625	15.254029	38.356189	-35.828362	-45.000000	-45.000000	-276.355948	-2809.088942	18.623729	-48.861409	-348.600071	36.571989	7.726824	-22.100343	
4.6400	-39.786543	-9.557222	8.668539	-197.586061	849.613194	-9.400819	9.854577	-45.000000	33.781824	-45.000000	-44.958041	1701.668061	-1910.845170	150.328603	-92.478733	1094.152317	42.440319	18.222648	6.227403	15.250414	38.341855	-35.847947	-45.000000	-45.000000	-276.355944	-2809.054714	18.631345	-48.923470	-348.516892	37.095451	7.624627	-22.110162	
4.6500	-39.777170	-9.577595	8.690063	-197.057951	849.753675	-9.328347	9.875920	-45.000000	33.821766	-45.000000	-44.972964	1701.682196	-1910.821129	150.295923	-92.514151	1094.195927	42.895086	18.208605	6.196142	15.241063	38.384391	-35.865103	-45.000000	-45.000000	-276.364809	-2809.011211	18.646185	-48.956302	-348.437820	37.645341	7.504120	-22.108268	
4.6600	-39.769944	-9.595877	8.705111	-196.531327	849.930207	-9.265831	9.901086	-45.000000	33.858793	-45.000000	-44.984382	1701.694528	-1910.791310	150.263901	-92.565555	1094.236529	43.394026	18.216216	6.160803	15.234309	38.372536	-35.891478	-45.000000	-45.000000	-276.368152	-2808.965925	18.668073	-48.984278	-348.364759	38.221610	7.412333	-22.129204	
4.6700	-39.766517	-9.614044	8.710290	-196.007919	850.152726	-9.215768	9.926970	-45.000000	33.903902	-45.000000	-44.991863	1701.703941	-1910.761305	150.230597	-92.619487	1094.283140	43.930661	18.199587	6.126507	15.222911	38.408716	-35.916363	-45.000000	-44.999999	-276.370296	-2808.916394	18.695886	-48.981145	-348.299295	38.812667	7.295751	-22.130809	
4.6800	-39.766510	-9.630293	8.704147	-195.487389	850.430364	-9.179866	9.954717	-45.000000	33.953940	-45.000000	-44.985762	1701.713925	-1910.724535	150.197663	-92.683763	1094.335171	44.500985	18.208590	6.084171	15.213321	38.380634	-35.955164	-45.000000	-44.999999	-276.362307	-2808.865095	18.723646	-48.974346	-348.235607	39.423823	7.209214	-22.156239	
4.6900	-39.767691	-9.646302	8.686018	-194.967840	850.771374	-9.158553	9.981720	-45.000000	34.020206	-45.000000	-44.973551	1701.720114	-1910.686544	150.164609	-92.747243	1094.401517	45.100737	18.193623	6.044429	15.201002	38.412631	-35.987966	-45.000000	-44.999998	-276.350607	-2808.811587	18.760088	-48.933185	-348.172964	40.042337	7.084421	-22.152382	
4.7000	-39.769283	-9.658933	8.659288	-194.446643	851.183250	-9.150792	10.013144	-45.000000	34.088178	-45.000000	-44.955258	1701.724737	-1910.640691	150.128736	-92.828011	1094.473293	45.726528	18.199686	5.989534	15.186390	38.377506	-36.031209	-45.000000	-44.999996	-276.334020	-2808.751389	18.794408	-48.891647	-348.103627	40.676428	6.993407	-22.176502	
4.7100	-39.772868	-9.665088	8.617951	-193.920809	851.672909	-9.154039	10.046683	-45.000000	34.169344	-45.000000	-44.933376	1701.726924	-1910.594358	150.090278	-92.913030	1094.558684	46.377849	18.185079	5.937991	15.167167	38.396557	-36.082036	-45.000000	-44.999992	-276.312927	-2808.690727	18.832076	-48.815635	-348.035574	41.314444	6.866052	-22.171206	
